<?xml version="1.0" encoding="UTF-8"?>
<svg id="Layer_2" data-name="Layer 2" xmlns="http://www.w3.org/2000/svg" viewBox="0 0 27 27">
  <defs>
    <style>
      .cls-1 {
        fill: #fff;
      }

      .cls-2 {
        fill: #3ec5e8;
      }
    </style>
  </defs>
  <circle class="cls-2" cx="13.5" cy="13.5" r="11.9"/>
  <g>
    <path class="cls-1" d="m12.96,11.22h1.08v2.53h-1.08v-2.53h0Zm-.44,2.96h1.96v-3.4h-1.96v3.4h0Z"/>
    <path class="cls-1" d="m12.96,6.18h1.08v2.53h-1.08v-2.53h0Zm-.44,2.96h1.96v-3.4h-1.96v3.4h0Z"/>
    <path class="cls-1" d="m10.27,11.22h1.08v2.53h-1.08v-2.53h0Zm-.44,2.96h1.96v-3.4h-1.96v3.4h0Z"/>
    <path class="cls-1" d="m10.27,6.18h1.08v2.53h-1.08v-2.53h0Zm-.44,2.96h1.96v-3.4h-1.96v3.4h0Z"/>
    <path class="cls-1" d="m15.64,11.22h1.08v2.53h-1.08v-2.53h0Zm-.44,2.96h1.96v-3.4h-1.96v3.4h0Z"/>
    <path class="cls-1" d="m15.64,6.18h1.08v2.53h-1.08v-2.53h0Zm-.44,2.96h1.96v-3.4h-1.96v3.4h0Z"/>
    <path class="cls-1" d="m21.53,21.43h-3v-8.72h2.25c.41,0,.74.33.74.74v7.98h0Zm-3.43,0h-2.45v-5.07c0-.26-.21-.46-.46-.46h-3.36c-.26,0-.46.21-.46.46v5.07h-2.45V5.38c0-.41.33-.74.74-.74h7.71c.41,0,.74.33.74.74v16.05h0Zm-6.3,0v-5.07s.01-.03.03-.03h3.36s.03.01.03.03v5.07h-3.42Zm-3.33,0h-3v-7.98c0-.41.33-.74.74-.74h2.25v8.72h0Zm12.32-9.16h-2.25v-6.89c0-.65-.53-1.18-1.18-1.18h-7.71c-.65,0-1.18.53-1.18,1.18v6.89h-2.25c-.65,0-1.18.53-1.18,1.18v8.41h16.93v-8.41c0-.65-.53-1.18-1.18-1.18h0Z"/>
  </g>
</svg>